# xmcd
#
# Track frame offsets:
#	150
#	23138
#	39922
#	63376
#	86980
#	107745
#	132804
#	155215
#	181157
#	201468
#	216751
#	245500
#
# Disc length: 3589 seconds
#
# Revision: 1
# Processed by: cddbd v1.5.2PL0 Copyright (c) Steve Scherf et al.
# Submitted via: audiograbber 1.83.01
#
DISCID=aa0e030c
DTITLE=Guy Tortora - Living On Credit
DYEAR=2007
DGENRE=Blues
TTITLE0=Living On Credit
TTITLE1=Nobody's Fault But Mine
TTITLE2=Like It That Way
TTITLE3=Cotton Was King
TTITLE4=God Don't Change
TTITLE5=Super Blue
TTITLE6=Mama's Tired
TTITLE7=White Boy Blues
TTITLE8=People Get Ready
TTITLE9=Share Croppers
TTITLE10=Falling
TTITLE11=Don't Do It
EXTD=
EXTT0=
EXTT1=
EXTT2=
EXTT3=
EXTT4=
EXTT5=
EXTT6=
EXTT7=
EXTT8=
EXTT9=
EXTT10=
EXTT11=
PLAYORDER=
